<svg width="146" height="279" viewBox="0 0 146 279" fill="none" xmlns="http://www.w3.org/2000/svg">
<path fill-rule="evenodd" clip-rule="evenodd" d="M12.09 278.571C8.05859 278.571 3.99107 278.382 0 278.009C33.0893 274.915 63.7436 259.113 86.3168 233.512C109.027 207.755 121.535 174.292 121.535 139.286C121.535 104.28 109.027 70.8161 86.3168 45.0596C63.7439 19.4593 33.0893 3.65643 0 0.562504C4.01912 0.187959 8.05348 0.000252758 12.09 0C16.6479 0 21.2446 0.241788 25.7521 0.719288C30.2084 1.19177 34.6371 1.8963 39.02 2.83C43.3446 3.75353 47.6189 4.89909 51.8257 6.26214C55.9945 7.61497 60.092 9.17817 64.1025 10.9457C72.0204 14.4364 79.6571 18.7571 86.8007 23.7879C93.8764 28.7707 100.53 34.4929 106.577 40.7957C112.623 47.0989 118.113 54.0343 122.893 61.41C127.737 68.8902 131.862 76.8121 135.214 85.0696C136.913 89.2616 138.413 93.532 139.707 97.8664C141.017 102.261 142.116 106.715 143 111.215C143.896 115.79 144.572 120.405 145.025 125.045C145.484 129.778 145.714 134.53 145.714 139.286C145.714 144.037 145.482 148.829 145.025 153.527C144.572 158.167 143.896 162.782 143 167.357C142.116 171.856 141.017 176.311 139.707 180.705C138.413 185.04 136.913 189.31 135.214 193.502C131.862 201.76 127.737 209.682 122.893 217.162C118.113 224.537 112.624 231.472 106.577 237.776C100.53 244.079 93.8764 249.801 86.8007 254.784C79.6571 259.814 72.0204 264.135 64.1025 267.626C60.092 269.393 55.9945 270.956 51.8257 272.309C47.6188 273.672 43.3444 274.818 39.0196 275.741C34.6368 276.675 30.2083 277.38 25.7521 277.852C21.2138 278.331 16.6535 278.571 12.09 278.571Z" fill="white" fill-opacity="0.12"/>
</svg>
